<mxfile host="65bd71144e">
    <diagram id="5byCOjBxk4Sau83wux4i" name="Page-1">
        <mxGraphModel dx="773" dy="1050" grid="0" gridSize="10" guides="1" tooltips="1" connect="1" arrows="1" fold="1" page="0" pageScale="1" pageWidth="850" pageHeight="1100" math="0" shadow="0">
            <root>
                <mxCell id="0"/>
                <mxCell id="1" parent="0"/>
                <mxCell id="2" value="" style="shape=loopLimit;whiteSpace=wrap;html=1;" parent="1" vertex="1">
                    <mxGeometry x="194" y="-58" width="120" height="54" as="geometry"/>
                </mxCell>
                <mxCell id="3" value="" style="rounded=1;whiteSpace=wrap;html=1;arcSize=50;" parent="1" vertex="1">
                    <mxGeometry x="194" y="-175" width="120" height="39" as="geometry"/>
                </mxCell>
                <mxCell id="4" value="res = i" style="rounded=0;whiteSpace=wrap;html=1;" parent="1" vertex="1">
                    <mxGeometry x="314" y="95" width="120" height="40" as="geometry"/>
                </mxCell>
                <mxCell id="5" value="" style="shape=loopLimit;verticalAlign=middle;rounded=0;rotation=-180;editable=1;movable=1;resizable=1;rotatable=1;deletable=1;connectable=1;horizontal=1;whiteSpace=wrap;html=1;" parent="1" vertex="1">
                    <mxGeometry x="194" y="175" width="120" height="51" as="geometry"/>
                </mxCell>
                <mxCell id="6" value="Конец цикла по i" style="text;html=1;strokeColor=none;fillColor=none;align=center;verticalAlign=middle;whiteSpace=wrap;rounded=0;" parent="1" vertex="1">
                    <mxGeometry x="194" y="182" width="120" height="30" as="geometry"/>
                </mxCell>
                <mxCell id="11" value="" style="rounded=1;whiteSpace=wrap;html=1;arcSize=50;" parent="1" vertex="1">
                    <mxGeometry x="194" y="320" width="120" height="39" as="geometry"/>
                </mxCell>
                <mxCell id="14" value="" style="endArrow=classic;html=1;rounded=0;exitX=0.5;exitY=1;exitDx=0;exitDy=0;edgeStyle=orthogonalEdgeStyle;entryX=0.5;entryY=1;entryDx=0;entryDy=0;" parent="1" source="4" target="5" edge="1">
                    <mxGeometry width="50" height="50" relative="1" as="geometry">
                        <mxPoint x="175" y="201" as="sourcePoint"/>
                        <mxPoint x="205" y="133" as="targetPoint"/>
                        <Array as="points">
                            <mxPoint x="374" y="148"/>
                            <mxPoint x="254" y="148"/>
                        </Array>
                    </mxGeometry>
                </mxCell>
                <mxCell id="15" value="" style="endArrow=classic;html=1;rounded=0;exitX=0.5;exitY=0;exitDx=0;exitDy=0;entryX=0.5;entryY=0;entryDx=0;entryDy=0;" parent="1" source="5" target="27" edge="1">
                    <mxGeometry width="50" height="50" relative="1" as="geometry">
                        <mxPoint x="175" y="225" as="sourcePoint"/>
                        <mxPoint x="254" y="236" as="targetPoint"/>
                    </mxGeometry>
                </mxCell>
                <mxCell id="19" value="Начало" style="text;html=1;strokeColor=none;fillColor=none;align=center;verticalAlign=middle;whiteSpace=wrap;rounded=0;" parent="1" vertex="1">
                    <mxGeometry x="224" y="-170.5" width="60" height="30" as="geometry"/>
                </mxCell>
                <mxCell id="21" value="Цикл i от 0 до" style="text;html=1;strokeColor=none;fillColor=none;align=center;verticalAlign=middle;whiteSpace=wrap;rounded=0;" parent="1" vertex="1">
                    <mxGeometry x="183" y="-61" width="142" height="30" as="geometry"/>
                </mxCell>
                <mxCell id="22" value="&amp;nbsp;len(arr) с шагом 1" style="text;html=1;strokeColor=none;fillColor=none;align=center;verticalAlign=middle;whiteSpace=wrap;rounded=0;" parent="1" vertex="1">
                    <mxGeometry x="187.5" y="-46" width="133" height="30" as="geometry"/>
                </mxCell>
                <mxCell id="23" value="Конец" style="text;html=1;strokeColor=none;fillColor=none;align=center;verticalAlign=middle;whiteSpace=wrap;rounded=0;" parent="1" vertex="1">
                    <mxGeometry x="224" y="324.5" width="60" height="30" as="geometry"/>
                </mxCell>
                <mxCell id="27" value="вернуть res" style="rounded=0;whiteSpace=wrap;html=1;" vertex="1" parent="1">
                    <mxGeometry x="194" y="253" width="120" height="40" as="geometry"/>
                </mxCell>
                <mxCell id="28" value="res = -1&amp;nbsp;" style="rounded=0;whiteSpace=wrap;html=1;" vertex="1" parent="1">
                    <mxGeometry x="194" y="-117" width="120" height="40" as="geometry"/>
                </mxCell>
                <mxCell id="29" value="arr[i] равно x ?" style="rhombus;whiteSpace=wrap;html=1;" vertex="1" parent="1">
                    <mxGeometry x="194" y="15" width="120" height="80" as="geometry"/>
                </mxCell>
                <mxCell id="30" value="" style="endArrow=classic;html=1;exitX=1;exitY=0.5;exitDx=0;exitDy=0;entryX=0.5;entryY=0;entryDx=0;entryDy=0;edgeStyle=orthogonalEdgeStyle;rounded=0;" edge="1" parent="1" source="29" target="4">
                    <mxGeometry width="50" height="50" relative="1" as="geometry">
                        <mxPoint x="356" y="182" as="sourcePoint"/>
                        <mxPoint x="406" y="132" as="targetPoint"/>
                    </mxGeometry>
                </mxCell>
                <mxCell id="31" value="Да" style="text;html=1;strokeColor=none;fillColor=none;align=center;verticalAlign=middle;whiteSpace=wrap;rounded=0;" vertex="1" parent="1">
                    <mxGeometry x="289" y="30" width="60" height="30" as="geometry"/>
                </mxCell>
                <mxCell id="32" value="пока res = -1" style="text;html=1;strokeColor=none;fillColor=none;align=center;verticalAlign=middle;whiteSpace=wrap;rounded=0;" vertex="1" parent="1">
                    <mxGeometry x="201.5" y="-31" width="105" height="30" as="geometry"/>
                </mxCell>
                <mxCell id="33" value="" style="endArrow=classic;html=1;rounded=0;exitX=0.5;exitY=1;exitDx=0;exitDy=0;entryX=0.5;entryY=0;entryDx=0;entryDy=0;" edge="1" parent="1" source="3" target="28">
                    <mxGeometry width="50" height="50" relative="1" as="geometry">
                        <mxPoint x="349" y="116" as="sourcePoint"/>
                        <mxPoint x="399" y="66" as="targetPoint"/>
                    </mxGeometry>
                </mxCell>
                <mxCell id="34" value="" style="endArrow=classic;html=1;rounded=0;exitX=0.5;exitY=1;exitDx=0;exitDy=0;entryX=0.5;entryY=0;entryDx=0;entryDy=0;" edge="1" parent="1" source="28" target="2">
                    <mxGeometry width="50" height="50" relative="1" as="geometry">
                        <mxPoint x="349" y="116" as="sourcePoint"/>
                        <mxPoint x="565" y="-30" as="targetPoint"/>
                    </mxGeometry>
                </mxCell>
                <mxCell id="35" value="" style="endArrow=classic;html=1;rounded=0;entryX=0.5;entryY=0;entryDx=0;entryDy=0;exitX=0.5;exitY=1;exitDx=0;exitDy=0;" edge="1" parent="1" source="2" target="29">
                    <mxGeometry width="50" height="50" relative="1" as="geometry">
                        <mxPoint x="206" y="28" as="sourcePoint"/>
                        <mxPoint x="259" y="-22" as="targetPoint"/>
                    </mxGeometry>
                </mxCell>
                <mxCell id="36" value="" style="endArrow=classic;html=1;rounded=0;exitX=0;exitY=0.5;exitDx=0;exitDy=0;entryX=0.5;entryY=1;entryDx=0;entryDy=0;edgeStyle=orthogonalEdgeStyle;" edge="1" parent="1" source="29" target="5">
                    <mxGeometry width="50" height="50" relative="1" as="geometry">
                        <mxPoint x="246" y="178" as="sourcePoint"/>
                        <mxPoint x="296" y="128" as="targetPoint"/>
                        <Array as="points">
                            <mxPoint x="145" y="55"/>
                            <mxPoint x="145" y="148"/>
                            <mxPoint x="254" y="148"/>
                        </Array>
                    </mxGeometry>
                </mxCell>
                <mxCell id="37" value="" style="endArrow=classic;html=1;rounded=0;exitX=0.5;exitY=1;exitDx=0;exitDy=0;entryX=0.5;entryY=0;entryDx=0;entryDy=0;" edge="1" parent="1" source="27" target="11">
                    <mxGeometry width="50" height="50" relative="1" as="geometry">
                        <mxPoint x="245" y="235" as="sourcePoint"/>
                        <mxPoint x="295" y="185" as="targetPoint"/>
                    </mxGeometry>
                </mxCell>
            </root>
        </mxGraphModel>
    </diagram>
</mxfile>